<?xml version="1.0" encoding="UTF-8"?>
<svg version="1.1" xmlns="http://www.w3.org/2000/svg" width="1432" height="1500">
<path d="M0 0 C1.13956954 0.00436926 1.13956954 0.00436926 2.30216068 0.00882679 C3.50400671 0.00754515 3.50400671 0.00754515 4.73013246 0.00623763 C7.43567753 0.00458038 10.14116165 0.01010817 12.84670109 0.01555592 C14.7778585 0.01583776 16.70901602 0.01568011 18.64017338 0.01511341 C23.90028629 0.01482533 29.16037661 0.02072373 34.42048424 0.02768737 C39.91114241 0.03391919 45.40180104 0.03452457 50.89246219 0.03571278 C61.29764511 0.0388266 71.70281757 0.04704068 82.10799587 0.05706227 C93.95059766 0.06822182 105.79319993 0.07373346 117.63580567 0.0787577 C142.00420565 0.08922325 166.37259634 0.10682368 190.74098819 0.12908131 C187.64373938 9.6315759 187.64373938 9.6315759 185.86257023 13.62200123 C185.52384891 14.38657139 185.1851276 15.15114155 184.836142 15.9388805 C184.47731937 16.73770146 184.11849674 17.53652241 183.74880069 18.35955006 C183.36677494 19.21940006 182.98474918 20.07925007 182.59114689 20.96515614 C181.77557524 22.7998421 180.95818868 24.6337222 180.13912052 26.46684986 C177.97187409 31.31793264 175.81844607 36.17515134 173.66286319 41.03142506 C173.23464267 41.9951302 172.80642215 42.95883534 172.36522526 43.95174366 C168.90547305 51.74245787 165.49406175 59.5526102 162.11598819 67.37908131 C161.08740333 69.76061806 160.05875647 72.14212803 159.03005069 74.52361256 C158.6412624 75.42392704 158.6412624 75.42392704 158.24461979 76.3424297 C154.67985911 84.59241274 151.0839028 92.82883182 147.49098819 101.06658131 C146.76686581 102.72706252 146.04274472 104.38754429 145.31862491 106.04802662 C143.85602038 109.40175881 142.39326465 112.75542502 140.93044132 116.10906178 C137.36575529 124.28173242 133.80353333 132.45547727 130.24098819 140.62908131 C128.82044078 143.88820701 127.39986734 147.14732136 125.97926944 150.40642506 C125.4523727 151.61522328 125.4523727 151.61522328 124.91483158 152.84844166 C122.82047273 157.6531207 120.72566735 162.45760476 118.63048404 167.26192433 C110.65660587 185.54632845 102.69252878 203.83495087 94.74098819 222.12908131 C86.4457987 241.21384571 78.13616239 260.29226645 69.81764835 279.36687428 C66.64633061 286.63901781 63.47649065 293.91180554 60.30650944 301.18453175 C58.53472672 305.24940675 56.76285295 309.31424206 54.99098819 313.37908131 C54.28265442 315.00408112 53.57432109 316.62908112 52.86598819 318.25408131 C40.11598819 347.50408131 27.36598819 376.75408131 14.61598819 406.00408131 C14.26534809 406.80849156 13.91470798 407.6129018 13.55344242 408.44168812 C12.84526343 410.06633285 12.13708268 411.69097681 11.42890018 413.31562001 C9.65569103 417.38354943 7.88251256 421.45149221 6.1093964 425.51946217 C2.95028196 432.76717771 -0.20902034 440.01481095 -3.36951596 447.26192433 C-11.34339413 465.54632845 -19.30747122 483.83495087 -27.25901181 502.12908131 C-35.5542013 521.21384571 -43.86383761 540.29226645 -52.18235165 559.36687428 C-55.35366939 566.63901781 -58.52350935 573.91180554 -61.69349056 581.18453175 C-63.46527328 585.24940675 -65.23714705 589.31424206 -67.00901181 593.37908131 C-67.71734558 595.00408112 -68.42567891 596.62908112 -69.13401181 598.25408131 C-81.88401181 627.50408131 -94.63401181 656.75408131 -107.38401181 686.00408131 C-107.73465191 686.80849156 -108.08529202 687.6129018 -108.44655758 688.44168812 C-109.15473657 690.06633285 -109.86291732 691.69097681 -110.57109982 693.31562001 C-112.34430897 697.38354943 -114.11748744 701.45149221 -115.8906036 705.51946217 C-119.04971804 712.76717771 -122.20902034 720.01481095 -125.36951596 727.26192433 C-133.34339417 745.54632853 -141.30741423 763.8349756 -149.25901181 782.12908131 C-155.38410498 796.22065587 -161.51186467 810.31105866 -167.65012509 824.39690357 C-168.37907755 826.06970663 -169.10792189 827.74255681 -169.83664852 829.41545826 C-170.84167101 831.72249514 -171.84714392 834.02933516 -172.85276181 836.33611256 C-173.14042416 836.99658085 -173.42808651 837.65704914 -173.72446591 838.33753163 C-175.87956473 843.278761 -178.06945916 848.20258785 -180.25901181 853.12908131 C-301.03901181 853.12908131 -421.81901181 853.12908131 -546.25901181 853.12908131 C-564.47717822 812.13820687 -564.47717822 812.13820687 -569.70200497 800.09047657 C-571.42853579 796.1096754 -573.16039149 792.13118975 -574.89182431 788.15251881 C-575.24764584 787.33466404 -575.60346737 786.51680928 -575.97007138 785.67417103 C-579.74436862 777.00431754 -583.54908065 768.34787356 -587.354837 759.69179493 C-596.51206841 738.8633307 -596.51206841 738.8633307 -600.71994931 729.17986256 C-600.98790814 728.56458699 -601.25586697 727.94931141 -601.53194577 727.31539112 C-602.8321609 724.32478444 -604.11520165 721.32833775 -605.37742001 718.32146412 C-607.9665597 712.19146045 -610.68164202 706.227167 -613.73801571 700.31903797 C-627.64552759 673.34990476 -627.64552759 673.34990476 -625.46604306 663.27751881 C-623.60126616 657.90909348 -620.89277046 653.09378326 -617.99192196 648.22283131 C-614.95365978 642.79864726 -612.90530078 636.99027997 -610.69651181 631.19158131 C-609.69180505 628.6481122 -608.67096415 626.11122707 -607.64963681 623.57439381 C-607.10469629 622.2153518 -606.55977496 620.8563021 -606.01487118 619.49724537 C-599.80088555 604.02592383 -593.52323868 588.58010634 -587.25901181 573.12908131 C-586.60877779 571.52507989 -585.95854974 569.92107607 -585.30832821 568.31706959 C-582.84711135 562.24574419 -580.38572458 556.17448773 -577.92380673 550.10344654 C-573.19728123 538.44731762 -568.47728588 526.78855245 -563.75901181 515.12908131 C-556.87526438 498.11871215 -549.984184 481.11132893 -543.08815914 464.10593373 C-539.67202037 455.68182148 -536.25681712 447.25733001 -532.84159237 438.83284718 C-531.23206336 434.86256968 -529.62248975 430.89231025 -528.01291806 426.92205006 C-527.47458775 425.59416929 -526.93625765 424.26628844 -526.39792782 422.93840748 C-526.02208554 422.01132984 -525.64624325 421.08425221 -525.25901181 420.12908131 C-523.44492952 422.85020474 -522.18226123 425.36539271 -520.86057431 428.34392506 C-520.38829403 429.40611256 -519.91601376 430.46830006 -519.42942196 431.56267506 C-518.91943661 432.71896412 -518.40945126 433.87525318 -517.88401181 435.06658131 C-517.33894345 436.29835935 -516.79385849 437.53013004 -516.2487579 438.76189381 C-512.24765348 447.81933417 -508.32518058 456.90952427 -504.43821102 466.01653248 C-499.79246699 476.9004114 -495.10431647 487.76574924 -490.4123016 498.6297527 C-481.50941438 519.24445843 -472.65025482 539.87748122 -463.81623226 560.5217815 C-456.37169666 577.91441553 -448.8661765 595.27966989 -441.32151181 612.62908131 C-434.65841061 627.95690078 -428.00969196 643.29050081 -421.45307308 658.66423756 C-420.70535413 660.41686706 -419.95645366 662.16899302 -419.20630795 663.92058522 C-418.19023155 666.29451939 -417.17890124 668.67041227 -416.16916806 671.04705006 C-415.87042782 671.7431992 -415.57168759 672.43934834 -415.26389462 673.15659291 C-413.25901181 677.89955446 -413.25901181 677.89955446 -413.25901181 680.12908131 C-376.29901181 680.12908131 -339.33901181 680.12908131 -301.25901181 680.12908131 C-300.26901181 677.15908131 -299.27901181 674.18908131 -298.25901181 671.12908131 C-297.15271554 668.42807604 -296.02609294 665.75700439 -294.84494931 663.09001881 C-294.51834316 662.34374226 -294.19173702 661.59746571 -293.85523373 660.82857472 C-292.78509037 658.38548126 -291.70952837 655.94481347 -290.63401181 653.50408131 C-289.87252724 651.76793596 -289.11146753 650.03160421 -288.35080868 648.29509693 C-286.77204597 644.69183526 -285.19146835 641.08937804 -283.60959774 637.48747975 C-280.32740303 630.01022674 -277.06751121 622.52327506 -273.80741268 615.03636891 C-272.04233386 610.98347993 -270.27558268 606.93132009 -268.50901181 602.87908131 C-267.80067058 601.25408475 -267.09233725 599.62908475 -266.38401181 598.00408131 C-196.25901018 437.12907759 -196.25901018 437.12907759 -159.07149655 351.81655079 C-158.36320969 350.19165443 -157.65492722 348.56675615 -156.94664913 346.94185597 C-155.17514062 342.87775465 -153.40355581 338.81368663 -151.63181454 334.74968678 C-148.45231145 327.45637795 -145.27332408 320.1628469 -142.09723812 312.8680492 C-134.42876229 295.25535561 -126.73872861 277.65249344 -119.00901181 260.06658131 C-113.3550555 247.20300053 -107.72855308 234.32849535 -102.15158993 221.4313274 C-97.78884262 211.34349294 -93.40250006 201.26606319 -89.00901181 191.19158131 C-88.47230358 189.96081867 -88.47230358 189.96081867 -87.92475277 188.70519215 C-86.09951444 184.51974508 -84.27404709 180.33439795 -82.44846493 176.14910084 C-79.23681088 168.78581819 -76.02720833 161.42164135 -72.81748348 154.05751759 C-71.04808005 149.99800085 -69.27853884 145.93854417 -67.50901181 141.87908131 C-66.80067781 140.2540816 -66.09234448 138.6290816 -65.38401181 137.00408131 C-58.30067847 120.75408131 -51.21734514 104.50408131 -44.13401181 88.25408131 C-43.60815739 87.04770764 -43.60815739 87.04770764 -43.07167965 85.81696278 C-42.36279034 84.19068968 -41.65389751 82.56441812 -40.94500118 80.93814808 C-39.18264571 76.89513891 -37.4203497 72.85210385 -35.65818173 68.80901295 C-32.36982592 61.2644308 -29.08089241 53.7201021 -25.78992611 46.17665821 C-24.25302862 42.65373615 -22.71645784 39.13067162 -21.17991024 35.60759693 C-20.4546494 33.94492846 -19.72923245 32.28232806 -19.00364071 30.61980397 C-17.99069875 28.298856 -16.97826389 25.97768761 -15.96604306 23.65642506 C-15.6493063 22.93059223 -15.33256954 22.20475941 -15.00623471 21.45693165 C-13.48119677 17.95680628 -11.96722763 14.45255082 -10.4753204 10.93816334 C-10.19726055 10.28392887 -9.91920071 9.62969441 -9.63271481 8.95563465 C-8.88431806 7.19094954 -8.13928998 5.42483686 -7.39450985 3.65862232 C-5.54103789 -0.47034413 -4.40083176 0.01279655 0 0 Z " fill="#38B6FF" transform="translate(1156.2590118050575,323.8709186911583)"/>
<path d="M0 0 C120.78 0 241.56 0 366 0 C384.21816642 40.99087444 384.21816642 40.99087444 389.44299316 53.03860474 C391.16952399 57.01940591 392.90137968 60.99789156 394.6328125 64.9765625 C394.98863403 65.79441727 395.34445557 66.61227203 395.71105957 67.45491028 C399.48535682 76.12476377 403.29006884 84.78120775 407.0958252 93.43728638 C416.2530566 114.26575061 416.2530566 114.26575061 420.4609375 123.94921875 C420.72889633 124.56449432 420.99685516 125.1797699 421.27293396 125.81369019 C422.5731491 128.80429687 423.85618984 131.80074356 425.1184082 134.80761719 C427.7075479 140.93762086 430.42263021 146.90191431 433.47900391 152.81004333 C447.38651578 179.77917655 447.38651578 179.77917655 445.20703125 189.8515625 C443.34225435 195.21998783 440.63375866 200.03529805 437.73291016 204.90625 C434.69464797 210.33043405 432.64628897 216.13880134 430.4375 221.9375 C429.43279324 224.48096911 428.41195235 227.01785424 427.390625 229.5546875 C426.84568449 230.91372951 426.30076316 232.2727792 425.75585938 233.63183594 C419.54187375 249.10315747 413.26422687 264.54897497 407 280 C406.34976599 281.60400141 405.69953793 283.20800524 405.04931641 284.81201172 C402.58809955 290.88333712 400.12671277 296.95459358 397.66479492 303.02563477 C392.93826943 314.68176369 388.21827408 326.34052886 383.5 338 C376.61625257 355.01036915 369.72517219 372.01775237 362.82914734 389.02314758 C359.41300857 397.44725983 355.99780531 405.8717513 352.58258057 414.29623413 C350.97305155 418.26651163 349.36347795 422.23677105 347.75390625 426.20703125 C347.21557595 427.53491202 346.67724584 428.86279287 346.13891602 430.19067383 C345.76307373 431.11775146 345.38723145 432.0448291 345 433 C343.18591771 430.27887657 341.92324942 427.7636886 340.6015625 424.78515625 C339.89314209 423.191875 339.89314209 423.191875 339.17041016 421.56640625 C338.40543213 419.83197266 338.40543213 419.83197266 337.625 418.0625 C337.07993164 416.83072196 336.53484668 415.59895127 335.98974609 414.3671875 C331.98864167 405.30974714 328.06616878 396.21955704 324.17919922 387.11254883 C319.53345518 376.22866991 314.84530466 365.36333207 310.15328979 354.49932861 C301.25040258 333.88462288 292.39124301 313.25160009 283.55722046 292.6072998 C276.11268486 275.21466578 268.6071647 257.84941142 261.0625 240.5 C254.39939881 225.17218053 247.75068015 209.8385805 241.19406128 194.46484375 C240.44634233 192.71221425 239.69744186 190.96008829 238.94729614 189.20849609 C237.93121975 186.83456192 236.91988943 184.45866903 235.91015625 182.08203125 C235.61141602 181.38588211 235.31267578 180.68973297 235.00488281 179.9724884 C233 175.22952685 233 175.22952685 233 173 C196.04 173 159.08 173 121 173 C119.515 177.455 119.515 177.455 118 182 C116.89370374 184.70100527 115.76708113 187.37207692 114.5859375 190.0390625 C114.09602829 191.15847733 114.09602829 191.15847733 113.59622192 192.30050659 C112.52607857 194.74360005 111.45051656 197.18426784 110.375 199.625 C109.61351544 201.36114535 108.85245573 203.0974771 108.09179688 204.83398438 C106.51303417 208.43724605 104.93245654 212.03970326 103.35058594 215.64160156 C100.06839122 223.11885456 96.8084994 230.60580625 93.54840088 238.0927124 C91.78332206 242.14560137 90.01657088 246.19776122 88.25 250.25 C87.54165878 251.87499656 86.83332544 253.49999656 86.125 255.125 C51.0625 335.5625 16 416 -21.18751526 501.31253052 C-21.89580211 502.93742688 -22.60408458 504.56232516 -23.31236267 506.18722534 C-25.08387118 510.25132666 -26.85545599 514.31539468 -28.62719727 518.37939453 C-31.80670035 525.67270336 -34.98568773 532.96623441 -38.16177368 540.2610321 C-45.83024951 557.8737257 -53.5202832 575.47658787 -61.25 593.0625 C-66.9039563 605.92608078 -72.53045872 618.80058595 -78.10742188 631.69775391 C-82.47016919 641.78558837 -86.85651174 651.86301812 -91.25 661.9375 C-91.60780548 662.75800842 -91.96561096 663.57851685 -92.33425903 664.42388916 C-94.15949736 668.60933623 -95.98496471 672.79468336 -97.81054688 676.97998047 C-101.02220093 684.34326312 -104.23180347 691.70743996 -107.44152832 699.07156372 C-109.21093176 703.13108046 -110.98047296 707.19053714 -112.75 711.25 C-113.45833399 712.87499971 -114.16666732 714.49999971 -114.875 716.125 C-121.95833333 732.375 -129.04166667 748.625 -136.125 764.875 C-136.47556961 765.67924911 -136.82613922 766.48349823 -137.18733215 767.31211853 C-137.89622147 768.93839162 -138.6051143 770.56466319 -139.31401062 772.19093323 C-141.0763661 776.23394239 -142.8386621 780.27697746 -144.60083008 784.32006836 C-147.88918588 791.86465051 -151.1781194 799.40897921 -154.46908569 806.9524231 C-156.00598319 810.47534516 -157.54255396 813.99840969 -159.07910156 817.52148438 C-159.80436241 819.18415285 -160.52977935 820.84675324 -161.25537109 822.50927734 C-162.26831306 824.83022531 -163.28074791 827.1513937 -164.29296875 829.47265625 C-164.76807388 830.56140549 -164.76807388 830.56140549 -165.2527771 831.67214966 C-166.77781504 835.17227503 -168.29178417 838.67653049 -169.78369141 842.19091797 C-170.06175125 842.84515244 -170.3398111 843.4993869 -170.626297 844.17344666 C-171.37469375 845.93813176 -172.11972183 847.70424445 -172.86450195 849.47045898 C-174 852 -174 852 -175 853 C-177.52935252 853.09774692 -180.03137417 853.1299541 -182.56117249 853.12025452 C-183.76301852 853.12153615 -183.76301852 853.12153615 -184.98914427 853.12284368 C-187.69468934 853.12450093 -190.40017346 853.11897314 -193.10571289 853.11352539 C-195.03687031 853.11324355 -196.96802783 853.1134012 -198.89918518 853.1139679 C-204.15929809 853.11425598 -209.41938841 853.10835757 -214.67949605 853.10139394 C-220.17015422 853.09516212 -225.66081284 853.09455674 -231.151474 853.09336853 C-241.55665691 853.0902547 -251.96182937 853.08204063 -262.36700767 853.07201904 C-274.20960946 853.06085949 -286.05221174 853.05534785 -297.89481747 853.05032361 C-322.26321745 853.03985805 -346.63160814 853.02225763 -371 853 C-367.90275119 843.49750541 -367.90275119 843.49750541 -366.12158203 839.50708008 C-365.78286072 838.74250992 -365.4441394 837.97793976 -365.09515381 837.19020081 C-364.73633118 836.39137985 -364.37750854 835.5925589 -364.0078125 834.76953125 C-363.62578674 833.90968124 -363.24376099 833.04983124 -362.85015869 832.16392517 C-362.03458705 830.32923921 -361.21720048 828.49535911 -360.39813232 826.66223145 C-358.2308859 821.81114866 -356.07745788 816.95392996 -353.921875 812.09765625 C-353.49365448 811.13395111 -353.06543396 810.17024597 -352.62423706 809.17733765 C-349.16448485 801.38662343 -345.75307356 793.57647111 -342.375 785.75 C-341.34641513 783.36846325 -340.31776827 780.98695328 -339.2890625 778.60546875 C-339.0298703 778.00525909 -338.7706781 777.40504944 -338.50363159 776.78665161 C-334.93887091 768.53666857 -331.34291461 760.30024949 -327.75 752.0625 C-327.02587762 750.40201879 -326.30175653 748.74153702 -325.57763672 747.08105469 C-324.11503219 743.7273225 -322.65227646 740.37365629 -321.18945312 737.02001953 C-317.6247671 728.84734889 -314.06254514 720.67360404 -310.5 712.5 C-309.07945258 709.2408743 -307.65887915 705.98175994 -306.23828125 702.72265625 C-305.88701675 701.91679077 -305.53575226 701.11092529 -305.17384338 700.28063965 C-303.07948454 695.47596061 -300.98467915 690.67147655 -298.88949585 685.86715698 C-290.91561767 667.58275286 -282.95154058 649.29413043 -275 631 C-266.7048105 611.9152356 -258.3951742 592.83681486 -250.07666016 573.76220703 C-246.90534241 566.49006349 -243.73550246 559.21727577 -240.56552124 551.94454956 C-238.79373853 547.87967456 -237.02186475 543.81483924 -235.25 539.75 C-234.54166623 538.12500019 -233.83333289 536.50000019 -233.125 534.875 C-220.375 505.625 -207.625 476.375 -194.875 447.125 C-194.52435989 446.32058975 -194.17371979 445.5161795 -193.81245422 444.68739319 C-193.10427523 443.06274846 -192.39609449 441.4381045 -191.68791199 439.8134613 C-189.91470284 435.74553188 -188.14152436 431.6775891 -186.3684082 427.60961914 C-183.20929376 420.3619036 -180.04999147 413.11427036 -176.88949585 405.86715698 C-168.91561767 387.58275286 -160.95154058 369.29413043 -153 351 C-144.7048105 331.9152356 -136.3951742 312.83681486 -128.07666016 293.76220703 C-124.90534241 286.49006349 -121.73550246 279.21727577 -118.56552124 271.94454956 C-116.79373853 267.87967456 -115.02186475 263.81483924 -113.25 259.75 C-112.54166623 258.12500019 -111.83333289 256.50000019 -111.125 254.875 C-92 211 -92 211 -72.875 167.125 C-72.34903984 165.91838463 -72.34903984 165.91838463 -71.81245422 164.68739319 C-71.10427523 163.06274846 -70.39609449 161.4381045 -69.68791199 159.8134613 C-67.91470284 155.74553188 -66.14152436 151.6775891 -64.3684082 147.60961914 C-61.20929376 140.3619036 -58.04999147 133.11427036 -54.88949585 125.86715698 C-46.91561764 107.58275278 -38.95159758 89.29410571 -31 71 C-24.87490682 56.90842544 -18.74714714 42.81802265 -12.60888672 28.73217773 C-11.87993426 27.05937467 -11.15108992 25.3865245 -10.42236328 23.71362305 C-9.41734079 21.40658617 -8.41186789 19.09974615 -7.40625 16.79296875 C-7.11858765 16.13250046 -6.83092529 15.47203217 -6.5345459 14.79154968 C-4.37944707 9.85032031 -2.18955265 4.92649346 0 0 Z " fill="#165A87" transform="translate(457,324)"/>
</svg>
